<?xml version="1.0" encoding="UTF-8" standalone="no"?>
<svg
   xmlns:dc="http://purl.org/dc/elements/1.1/"
   xmlns:cc="http://creativecommons.org/ns#"
   xmlns:rdf="http://www.w3.org/1999/02/22-rdf-syntax-ns#"
   xmlns:svg="http://www.w3.org/2000/svg"
   xmlns="http://www.w3.org/2000/svg"
   id="svg8"
   version="1.1"
   viewBox="0 0 1000 1000"
   height="1000"
   width="1000">
  <defs
     id="defs2" />
  <metadata
     id="metadata5">
    <rdf:RDF>
      <cc:Work
         rdf:about="">
        <dc:format>image/svg+xml</dc:format>
        <dc:type
           rdf:resource="http://purl.org/dc/dcmitype/StillImage" />
        <dc:title></dc:title>
      </cc:Work>
    </rdf:RDF>
  </metadata>
  <g
     transform="translate(0,-767.833)"
     id="layer1">
    <g
       style="fill:#1a1a1a"
       transform="matrix(0.98716573,0,0,0.98716573,6.4171346,16.271274)"
       id="g1106">
      <path
         style="fill:#1a1a1a;fill-opacity:1;stroke:none;stroke-width:0.84490794px;stroke-linecap:butt;stroke-linejoin:miter;stroke-opacity:1"
         d="m 91.65331,1221.5503 c -6.845953,-0.068 -13.77541,0.794 -20.355469,2.377 -26.279594,6.3223 -38.942443,32.8809 -38.794922,46.0273 0.200666,17.8852 6.452969,31.5888 20.681641,43.1074 6.474276,5.2411 13.336557,7.8095 18.240234,8.1289 -0.127835,1.2298 -0.179549,2.4865 -0.05273,3.4981 -1.571866,0.2611 -3.359888,0.932 -4.853516,2.2617 -1.618168,1.4408 -2.881262,3.6469 -3.732422,6.5195 -0.850992,2.8725 -0.9061,6.4068 -1.933593,8.9961 -1.027492,2.5893 -3.0269,4.2295 -4.080078,5.5879 -1.053177,1.3586 -1.54187,2.4326 -1.660157,3.7285 -0.118372,1.296 0.135592,2.8068 0.953125,4.1934 0.817533,1.3869 2.197049,2.645 3.949219,3.7207 1.752001,1.0758 3.874124,1.9681 6.636719,2.4512 0.795988,0.1393 1.653794,0.234 2.527344,0.3066 a 4.2235285,4.2235285 0 0 0 -0.38086,1.7422 4.2235285,4.2235285 0 0 0 4.222656,4.2227 4.2235285,4.2235285 0 0 0 4.222657,-4.2227 4.2235285,4.2235285 0 0 0 -0.378907,-1.7402 c 0.873888,-0.073 1.730934,-0.1693 2.527344,-0.3086 2.762511,-0.4831 4.884634,-1.3754 6.636719,-2.4512 1.752001,-1.0757 3.133639,-2.3338 3.951172,-3.7207 0.817449,-1.3866 1.067505,-2.8974 0.949219,-4.1934 -0.118372,-1.2959 -0.605026,-2.3699 -1.658204,-3.7285 -1.05318,-1.3584 -3.050717,-2.9986 -4.078125,-5.5879 -1.027493,-2.5893 -1.084471,-6.1236 -1.935547,-8.9961 -0.851076,-2.8726 -2.114169,-5.0787 -3.732421,-6.5195 -1.493628,-1.3297 -3.283603,-2.0006 -4.855469,-2.2617 0.132228,-1.0585 0.07189,-2.3834 -0.06836,-3.666 1.284515,-0.253 2.298135,-0.7333 2.916016,-1.461 3.407598,-4.013 -7.292471,-16.6599 -11.824219,-23.4121 -4.531749,-6.7523 -6.771136,-23.2878 0.175782,-30.8847 5.727546,-6.2633 18.200061,-6.9939 25.345703,-2.4141 10.405809,6.6691 10.679019,20.0703 12.224609,35.0059 1.54558,14.9355 -2.35944,61.2566 -1.14844,77.539 1.15229,15.4918 0.0121,29.9232 7.24218,42.2461 6.80446,11.598 19.02908,20.0352 31.38282,25.3457 8.87981,3.8171 22.72383,5.8997 35.2207,7.0469 0.09,0.2112 0.17318,0.4133 0.26367,0.625 -3.0328,6.4985 -6.56147,12.7041 -12.04492,18.9394 l -0.0703,0.08 -0.0664,0.082 c -6.5831,7.9442 -12.07476,11.0865 -15.52148,11.9356 -3.44671,0.8492 -5.01442,0.03 -6.38672,-1.2637 -1.37239,-1.2945 -2.16476,-3.5081 -2.03321,-5.1445 0.13156,-1.6363 0.43479,-2.5181 2.58204,-3.4121 a 7.1824358,7.1824358 0 1 0 -5.51954,-13.2598 c -6.80421,2.8329 -10.88136,9.3068 -11.38086,15.5195 -0.44172,5.4942 1.33095,10.9208 4.97461,15.1485 h -39.193349 -0.04687 c -15.861712,0.221 -25.518697,-3.4576 -30.957031,-7.9141 -5.43825,-4.4566 -7.194844,-9.7647 -6.951172,-15.0078 0.243756,-5.2431 2.874574,-10.2183 6.246094,-12.8105 3.371521,-2.5921 6.932894,-3.4878 12.347656,-0.7051 a 6.7599396,6.7599396 0 1 0 6.177735,-12.0254 c -9.48857,-4.8761 -19.812539,-3.332 -26.765625,2.0137 -6.953085,5.3458 -11.087228,13.8089 -11.509766,22.9004 -0.422539,9.0914 3.253365,19.017 11.886719,26.0917 8.633354,7.0748 21.687464,11.2258 39.714843,10.9747 H 482.54979 c 21.96574,0.4026 40.96555,-9.6829 52.26172,-25.5645 7.49417,-10.5364 11.72032,-24.2314 7.48438,-38.7383 -1.44057,-4.9336 -4.287,-10.8512 -9.17969,-16.1523 -4.89269,-5.301 -12.04935,-9.8957 -21.21094,-11.0274 -4.62916,-0.5718 -9.05461,-1.2075 -12.81445,-2.4179 a 6.7599396,6.7599396 0 0 0 4.09375,-7.8125 c -0.98297,-4.4944 -3.55526,-8.5479 -7.56055,-10.3184 -1.50191,-0.664 -3.03984,-0.9529 -4.53516,-0.9551 -0.49841,-8e-4 -0.99243,0.032 -1.47851,0.092 -1.94413,0.238 -3.76452,0.9298 -5.27344,1.8692 -3.01768,1.8789 -5.30822,4.7868 -6.27344,8.5097 -0.96522,3.723 -0.1907,8.3201 2.48243,11.8887 8.20152,10.9493 21.6307,11.5634 29.70312,12.5606 5.69899,0.7039 9.75454,3.3348 12.93359,6.7792 3.17905,3.4445 5.26562,7.7903 6.13672,10.7735 2.96402,10.1512 0.28302,18.947 -5.52539,27.1133 -8.76668,12.3255 -23.31154,20.2462 -41.10547,19.8847 h -0.0684 -21.97851 c 3.64341,-4.2277 5.41241,-9.6542 4.9707,-15.1484 -0.49951,-6.2127 -4.57274,-12.6886 -11.37695,-15.5215 a 7.1826191,7.1826191 0 1 0 -5.52149,13.2617 c 2.14725,0.8939 2.45039,1.7739 2.58204,3.4102 0.13155,1.6364 -0.65895,3.85 -2.03126,5.1445 -1.37238,1.2946 -2.94195,2.1129 -6.38867,1.2637 -3.44671,-0.8491 -8.93643,-3.9894 -15.51953,-11.9336 l -0.0684,-0.084 -0.0684,-0.078 c -5.48354,-6.2353 -9.01416,-12.441 -12.04687,-18.9395 0.14076,-0.3293 0.27262,-0.6426 0.41211,-0.9707 5.9103,-1.2216 10.85756,-2.8966 14.10547,-5.1914 8.31457,-5.8745 13.77574,-11.8388 17.20117,-21.4257 5.01064,-14.0236 3.88995,-30.01 1.20703,-44.6583 -3.05553,-16.6828 -11.90663,-31.8162 -19.3125,-47.0742 -4.64158,-9.5626 -10.95612,-18.2431 -15.69141,-27.7597 -3.55309,-7.1408 -6.35175,-14.1335 -3.62109,-20.5196 1.42587,-3.3346 5.4291,-5.9508 9.05469,-6.0371 2.34529,-0.056 4.83833,1.6041 6.0332,3.6231 2.66594,4.5044 -2.89938,11.8019 0.60547,15.6894 2.85748,3.1695 9.29056,4.4115 12.67383,1.8106 9.47572,-7.2846 11.24155,-25.9313 4.22265,-35.6055 -6.02378,-8.3025 -20.47049,-9.3558 -30.17578,-6.0352 -11.33418,3.8778 -19.86596,15.7529 -23.53515,27.1563 -6.74456,20.9612 3.59573,43.8991 6.0332,65.7832 2.41061,21.6435 2.44014,35.2823 -7.84375,47.6777 -7.51723,9.0607 -21.42717,11.6673 -33.19336,12.0703 -13.80825,0.4729 -30.68066,-1.1176 -39.83203,-11.4687 -8.49943,-9.6138 -8.75019,-27.0697 -6.03516,-38.0195 3.21876,-12.9811 20.79069,-32.8318 14.48438,-37.418 -3.9763,-2.8918 -48.10448,15.2702 -73.02344,16.2949 -24.95782,1.0264 -53.78133,4.0826 -74.23242,-10.2597 -30.1562,-21.1483 -21.24685,-76.7605 -51.50977,-97.7559 -8.95644,-6.2137 -20.13698,-8.9035 -31.54687,-9.0156 z m 100.68359,229.5684 c 7.11093,0.3087 11.94531,0.3183 11.94531,0.3183 0,0 152.07994,1.2145 172.60157,1.2071 7.25885,0 14.82022,-0.209 21.98242,-0.7559 -2.90521,6.0535 -6.32075,11.8704 -11.45703,17.7109 l -0.0703,0.08 -0.0664,0.082 c -6.5831,7.9442 -12.07477,11.0865 -15.52149,11.9356 -3.44672,0.8492 -5.01442,0.03 -6.38672,-1.2637 -1.37238,-1.2945 -2.16475,-3.5081 -2.0332,-5.1445 0.13155,-1.6363 0.43478,-2.5181 2.58203,-3.4121 a 7.1824358,7.1824358 0 1 0 -5.51953,-13.2598 c -6.80421,2.8329 -10.88135,9.3068 -11.38086,15.5195 -0.44171,5.4942 1.33095,10.9208 4.97461,15.1485 H 237.58495 c 3.64341,-4.2277 5.41436,-9.6543 4.97265,-15.1485 -0.49951,-6.2127 -4.57469,-12.6885 -11.3789,-15.5214 a 7.1826191,7.1826191 0 1 0 -5.52149,13.2617 c 2.14725,0.894 2.45039,1.7738 2.58203,3.4101 0.13155,1.6364 -0.65896,3.8501 -2.03125,5.1446 -1.37239,1.2946 -2.94195,2.1128 -6.38867,1.2636 -3.44671,-0.8491 -8.93643,-3.9894 -15.51953,-11.9336 l -0.0684,-0.084 -0.0684,-0.078 c -5.35393,-6.0878 -8.84136,-12.1489 -11.82617,-18.4804 z m -8.07812,15.4062 c 2.47279,4.136 5.40457,8.3173 9.0664,12.4903 3.51422,4.2284 6.99065,7.6296 10.44336,10.2695 h -39.02148 c 3.45306,-2.6399 6.93117,-6.0411 10.44531,-10.2695 3.662,-4.1732 6.59353,-8.3541 9.06641,-12.4903 z m 223.05468,0 c 2.47279,4.136 5.40458,8.3173 9.06641,12.4903 3.51422,4.2284 6.9926,7.6296 10.44531,10.2695 H 387.8037 c 3.45306,-2.6399 6.92922,-6.0411 10.44336,-10.2695 3.662,-4.1732 6.59352,-8.3541 9.0664,-12.4903 z"
         id="path19" />
      <path
         style="fill:#1a1a1a;fill-opacity:1;stroke:none;stroke-width:0.81888491px;stroke-linecap:butt;stroke-linejoin:miter;stroke-opacity:1"
         d="m 792.8701,1032.8589 c -0.22593,0.014 -0.45454,0.048 -0.68554,0.1 -2.77265,0.6202 -5.85657,3.8545 -7.91993,8.6406 -1.77278,4.1123 -4.3478,13.9927 -4.89648,18.7891 -0.22263,1.9425 -0.51682,4.119 -0.65234,4.8359 -0.45735,2.4215 -0.76192,9.5344 -0.65039,15.1973 0.0811,4.1068 0.70744,8.3622 2.31445,15.7246 1.21186,5.5515 2.00963,10.1298 1.78125,10.1738 -0.8727,0.1644 -6.94978,-4.1166 -9.44141,-6.6562 -4.09958,-4.1782 -9.84031,-8.4611 -11.45898,-8.5508 -0.88167,-0.049 -2.62839,-0.038 -3.33008,0.8711 -0.77647,1.0052 -0.72113,1.9253 0,3.8125 1.08629,2.8487 9.37053,12.0499 18.15039,20.1621 3.87077,3.5763 8.61557,8.0149 10.54297,9.8633 1.9274,1.8484 6.14635,5.407 9.375,7.9082 3.22865,2.5011 7.72283,6.1065 9.98828,8.0117 7.5457,6.3456 11.46101,8.7569 17.51563,12.6602 2.17369,1.4013 4.41163,2.698 6.66601,3.9668 -2.32223,-0.031 -6.80933,-0.1596 -9.33594,-0.709 -2.91105,-0.6325 -8.17578,-3.1407 -8.17578,-3.1407 -11.40001,-4.3797 -15.9814,-7.7333 -23.26172,-17.0234 -1.16961,-1.4922 -2.95458,-3.1015 -3.96484,-3.5742 -1.37745,-0.819 -2.20513,-0.4449 -3.15625,0.918 -2.50363,3.5869 0.73445,10.2525 6.50391,14.4375 2.70742,1.9632 3.37567,2.9705 2.08398,3.1425 -0.51092,0.062 -2.71372,-0.4064 -3.23047,-0.5976 -1.45349,-0.539 -6.28206,-1.4337 -8.82422,-0.064 -0.96016,0.5171 -1.70311,1.1348 -1.48242,2.6172 0.3656,2.4628 4.30796,3.5449 10.89063,4.2148 14.14495,1.4405 25.43083,4.3589 26.8164,6.9375 0.4647,0.8649 0.36406,1.0277 -1.07617,1.7559 -1.62154,0.8197 -8.33644,1.7134 -12.56445,2.0918 -1.90315,0.1704 -3.59051,0.1247 -5.71875,0.076 -2.49924,-0.058 -5.69537,-0.6419 -9.02735,-1.6465 -6.51187,-1.9631 -9.29276,-3.8232 -15.69336,-10.5078 -8.57835,-8.9594 -10.29831,-10.2889 -15.14453,-11.7168 -11.37517,-3.3511 -14.01648,1.4153 -5.17578,9.3379 6.1342,5.4977 7.68743,8.3128 5.17383,9.3789 -0.94013,0.3991 -2.01404,0.087 -6.44726,-1.8731 -5.93633,-2.6237 -11.77318,-6.8387 -17.50977,-12.6426 -10.72179,-10.8472 -15.12416,-13.9192 -18.04492,-12.5937 -0.80156,0.3636 -1.393,0.9426 -1.77735,1.6855 -1.15279,2.2284 -0.43403,5.9246 2.11328,9.6485 2.18882,3.1998 8.44648,9.7117 11.89844,12.3847 1.39756,1.0831 2.93733,2.327 3.42188,2.7637 1.63608,1.4752 7.05679,5.084 11.58203,7.711 3.28171,1.9053 7.00334,3.5019 13.75195,5.8984 5.08897,1.8071 9.16643,3.4362 9.06446,3.6191 -0.3836,0.6879 -7.35506,2.8772 -10.83008,3.4004 -5.71673,0.8624 -12.48483,2.8153 -13.51368,3.9004 -0.56042,0.5909 -1.58696,1.8154 -1.2871,2.7383 0.33188,1.0211 1.0878,1.4206 3,1.8203 2.88637,0.603 15.03588,-0.7739 26.62109,-3.0176 5.10739,-0.9893 11.41167,-2.1765 14.00781,-2.6367 2.59658,-0.4601 7.89652,-1.7004 11.77735,-2.7559 3.88049,-1.0554 9.38139,-2.4639 12.22265,-3.1328 9.46356,-2.2273 13.67832,-3.807 20.33594,-6.1621 0.51928,-0.1831 1.03514,-0.3752 1.55078,-0.5664 -0.84567,2.0475 -1.60339,3.5262 -2.50195,4.5996 -0.92239,1.102 -1.99681,1.7911 -3.73242,2.1387 -1.7362,0.3445 -4.13432,0.3527 -6.39454,1.1953 -2.26021,0.8427 -4.38614,2.5247 -6.11718,4.0742 -1.7308,1.5494 -3.10584,3.0058 -4.67188,5.1875 -1.56612,2.1814 -3.39501,5.1663 -5.50195,7.8379 -2.10695,2.6714 -4.49436,5.0334 -6.88477,6.7676 -2.39067,1.734 -4.78654,2.841 -5.51367,3.7715 -0.7273,0.9307 0.21221,1.685 1.67188,2.4922 1.4567,0.8076 3.42553,1.6685 5.43945,2.5215 2.01409,0.853 4.07258,1.6981 6.34961,2.25 2.27711,0.5519 4.77024,0.8094 7.32617,0.7168 2.55576,-0.093 5.2872,-0.5554 7.58594,-1.3965 2.29865,-0.8413 4.3939,-2.0987 6.09765,-3.0938 1.70368,-0.9952 3.01347,-1.7287 4.36329,-0.7168 1.35008,1.0118 2.74232,3.7685 4.68164,5.7617 1.93931,1.9935 4.42409,3.2236 7.14453,4.9297 2.72043,1.7062 5.67435,3.8891 9.04883,6.4063 3.37422,2.5172 7.16921,5.3681 9.94921,8.3437 2.78,2.9756 4.54793,6.0769 4.97266,9.3926 0.42465,3.3156 -0.49338,6.8509 -2.35352,10.5195 -1.85997,3.6687 -4.66497,7.4743 -7.46289,10.127 -2.79798,2.6526 -5.59177,4.1533 -8.85937,5.8535 -3.26759,1.7003 -7.00979,3.6005 -12.7207,4.6387 -5.71107,1.0381 -13.39259,1.2132 -19.70118,1.0625 -6.30868,-0.1504 -11.24727,-0.6265 -15.85742,-1.0645 -4.60982,-0.4382 -8.89384,-0.838 -12.79883,-0.5801 -3.90492,0.258 -7.4354,1.1744 -10.88085,2.9102 -3.44546,1.7357 -6.8073,4.2933 -9.72071,6.4981 -2.91349,2.2049 -5.3794,4.0587 -8.1289,5.5507 -2.74942,1.492 -5.78623,2.6234 -8.53125,3.4082 -2.74502,0.7847 -5.20064,1.2232 -7.93164,0.7754 -2.731,-0.4477 -5.7371,-1.783 -7.71876,-4.3437 -1.98172,-2.5606 -2.93815,-6.3449 -3.77148,-8.9531 -0.83325,-2.6081 -1.54276,-4.0345 -2.45703,-4.7032 -0.91419,-0.6689 -2.03464,-0.5779 -2.55273,2.1485 -0.51811,2.7264 -0.43106,8.0904 -2.24415,8.8906 -1.81317,0.8 -5.52569,-2.9669 -6.87695,-2.0234 -1.35143,0.9436 -0.34412,6.5979 0.97461,11.1191 1.31873,4.521 2.94928,7.9101 6.40039,11.0664 3.45102,3.1563 8.72164,6.0776 13.25,7.6055 4.52863,1.5276 8.31252,1.6596 10.5293,3.2304 2.21636,1.5708 2.86854,4.5805 2.88476,7.9258 0.0169,3.3451 -0.60349,7.0286 -2.81445,10.5059 -2.21095,3.4774 -6.01355,6.7515 -9.91601,9.6777 -3.90247,2.926 -7.9064,5.5062 -11.71094,7 -3.80445,1.4939 -7.41218,1.9026 -10.46094,2.3555 -1.96441,0.2917 -3.69544,0.6071 -5.22852,1.209 -1.6649,0.6537 -1.76145,0.8445 -2.36328,1.3027 -0.80478,0.6128 -1.33979,1.5872 -2.26953,2.3711 -4.48562,3.7826 -9.96067,6.6638 -15.44336,9.2187 -5.80714,2.7058 -18.65996,10.036 -23.09961,12.2461 -4.43957,2.2101 -7.3196,4.5274 -9.66211,7.2012 -2.34251,2.674 -4.15001,5.7064 -6.33984,7.0078 -2.18975,1.3015 -4.76367,0.8723 -7.7832,1.5352 -3.01903,0.6653 -6.55353,2.4591 -9.32617,6.0644 -2.7724,3.6052 -4.91851,9.0924 -6.04883,14.1328 -1.13031,5.0401 -1.24319,9.6358 -0.38282,11.5723 0.86063,1.9363 2.69177,1.2141 4.54102,0.1563 1.84951,-1.0576 3.76732,-2.4906 4.67187,-3.1661 0.90473,-0.6752 9.58833,-7.9077 11.38672,-9.164 1.7983,-1.2563 5.39613,-3.7668 9.36719,-6.4707 3.97116,-2.7039 8.3159,-5.6001 12.71289,-8.2969 3.26565,-2.0027 10.32266,-6.7661 15.60156,-10.1094 -1.71153,1.9043 -3.50622,3.7484 -5.35742,5.5157 -4.99239,4.7664 -10.39228,8.9872 -14.16015,12.7753 -3.76795,3.7884 -5.90528,7.1481 -7.37305,10.6856 -1.46752,3.5376 -2.26736,7.2576 -4.05274,9.3418 -1.78545,2.0842 -4.56079,2.5342 -7.4121,4.2558 -2.85148,1.7214 -5.83709,4.7736 -7.42188,9.4102 -1.58496,4.6367 -1.88146,10.9757 -1.29492,16.5098 0.58653,5.534 2.05428,10.2642 3.60156,11.9433 1.54686,1.6791 3.16906,0.3098 4.69141,-1.4082 1.52202,-1.7177 2.98549,-3.8422 3.67578,-4.8437 0.68995,-1.0015 7.05558,-11.382 8.45703,-13.2852 1.40179,-1.903 4.20499,-5.7073 7.32422,-9.8379 3.11931,-4.1306 6.5529,-8.5851 10.10937,-12.8554 3.55631,-4.2703 7.23195,-8.3542 10.99805,-12.4571 3.766,-4.1032 7.62078,-8.2218 11.61719,-12.3183 3.9965,-4.0967 8.13132,-8.1676 11.32617,-10.6387 3.19451,-2.4712 5.44618,-3.3381 7.98242,-3.8457 2.53726,-0.5034 5.35803,-0.6555 8.63281,-0.8399 3.27486,-0.1841 7.00002,-0.4062 11.58399,-0.4335 4.58396,-0.028 10.02474,0.14 14.71094,-0.1172 4.68619,-0.2573 8.61692,-0.9391 12.55859,-2.1465 3.94191,-1.2073 7.89034,-2.9386 12.14453,-5.6738 4.25428,-2.7352 8.81176,-6.4709 12.5918,-9.8965 3.77969,-3.4256 6.7791,-6.5372 9.91211,-9.9903 3.13309,-3.4531 6.39621,-7.2449 9.61133,-9.8769 3.2153,-2.6321 6.3828,-4.1036 10.32421,-5.3106 3.94142,-1.2073 8.6554,-2.1517 13.06641,-2.4062 4.41101,-0.2544 8.51604,0.1803 12.20508,0.5937 3.68946,0.4133 6.96143,0.8053 10.88086,1.2246 3.91944,0.4195 8.48469,0.8667 12.85937,0.6719 4.37468,-0.1951 8.64556,-1.0498 12.79102,-2.7168 4.14546,-1.6669 8.41575,-4.2259 11.81836,-6.5664 3.40278,-2.3406 6.15294,-4.6065 8.13476,-5.1914 1.9819,-0.5851 3.32838,0.4018 5.32422,0.8399 1.99575,0.4383 4.63888,0.3283 7.74805,-0.9219 3.10918,-1.2503 6.68028,-3.6386 10.13672,-5.9004 3.45626,-2.2614 6.79416,-4.394 9.5625,-6.3613 2.76842,-1.9671 4.96461,-3.7674 6.91601,-5.6758 1.95149,-1.9084 3.65706,-3.9219 5.10938,-5.2071 0.72949,-0.6457 1.41298,-1.1147 2.02148,-1.3769 -0.29639,3.7047 0.16107,7.2572 -1.28711,10.5469 -1.9966,4.5343 -7.46492,10.4658 -9.59375,11.3515 -2.12883,0.8854 -3.85984,0.826 -5.26171,1.2832 -1.40188,0.458 -2.47844,1.435 -3.50196,2.3262 -1.02336,0.8908 -1.99518,1.6981 -3.17383,1.9531 -1.17865,0.2546 -2.63973,-0.058 -3.92382,-0.207 -1.28451,-0.1492 -2.54851,-0.1673 -3.69336,0.1348 -1.14468,0.302 -2.17253,0.9253 -4.9336,4.5605 -2.76116,3.6353 -7.25848,10.2884 -9.60547,14.0899 -2.3469,3.8018 -2.54943,4.7621 -1.79687,5.3613 0.75222,0.5992 2.46001,0.8354 5.41406,0.5996 2.95422,-0.2368 7.15216,-0.9475 11.54492,-2.5273 4.39243,-1.5821 8.97455,-4.0371 13.375,-6.5977 2.35298,-1.3691 4.64417,-2.7662 6.82032,-4.1602 -1.49481,2.1497 -2.97882,3.8483 -4.39649,4.9883 -2.07906,1.6717 -4.02234,2.1654 -5.43164,3.127 -1.40956,0.962 -2.28954,2.3941 -3.13867,3.7148 -0.84905,1.3206 -1.66943,2.5329 -2.89649,3.1973 -1.22697,0.6643 -2.95048,0.7861 -4.42578,1.0351 -1.47555,0.2481 -2.8845,0.6362 -4.05859,1.3418 -1.17433,0.7056 -2.11445,1.7309 -4.00781,6.6621 -1.89335,4.9312 -4.74195,13.7775 -6.1211,18.7598 -1.37897,4.9821 -1.29328,6.1163 -0.26367,6.5391 1.02969,0.4226 3.00315,0.1313 6.20899,-1.086 3.20583,-1.217 7.64277,-3.3602 12.01171,-6.5371 4.3691,-3.1769 8.66892,-7.3855 12.73047,-11.6523 4.06165,-4.2667 7.88216,-8.5879 11.02539,-12.5664 3.14314,-3.9784 5.6048,-7.6108 7.9043,-11.9961 2.29967,-4.3853 4.43523,-9.5215 6.53516,-14.5996 2.09994,-5.0781 4.18491,-10.1492 5.77148,-14.8907 1.58648,-4.7414 2.71949,-9.258 3.78906,-13.2929 1.06948,-4.0347 2.07542,-7.5836 2.42774,-11.2129 0.35241,-3.6293 0.0413,-7.4388 -1.06445,-10.0957 -1.10573,-2.6568 -3.02193,-4.3672 -5.60938,-5.7363 -2.58702,-1.3692 -5.84598,-2.3993 -8.98633,-2.6114 -3.14044,-0.2119 -6.16657,0.394 -8.67578,1.7364 -2.50938,1.3423 -4.56478,3.4887 -6.8457,5.1777 -2.28091,1.6889 -4.91278,3.052 -6.25196,3.0059 -1.33901,-0.046 -1.38199,-1.5023 -1.13671,-3.9063 0.24527,-2.4042 0.7792,-5.7559 0.94336,-9.2695 0.16399,-3.5138 -0.0421,-7.1852 -0.79297,-11.2735 -0.75087,-4.0883 -2.04931,-8.5898 -3.55079,-13.0039 -1.50139,-4.414 -3.20785,-8.7395 -5.95312,-13.1093 -2.74511,-4.37 -6.52978,-8.7846 -9.74414,-12.4102 -3.21462,-3.6255 -5.8584,-6.4617 -8.45117,-9.1172 -2.59285,-2.6553 -5.13328,-5.1299 -7.35742,-7.0937 -2.2243,-1.9637 -4.24665,-3.504 -6.08399,-4.7637 -1.83734,-1.2601 -3.954,-2.558 -5.68555,-3.3008 -1.73147,-0.7429 -3.19974,-1.0056 -4.47656,-1.375 -1.27666,-0.3693 -2.36355,-0.8478 -2.5,-1.6738 -0.13485,-0.8263 0.68545,-1.9957 1.75781,-2.7539 1.07219,-0.7584 2.39425,-1.1025 5.17188,-1.5899 2.7773,-0.4883 7.00643,-1.119 10.24023,-1.9199 3.2338,-0.8009 5.46746,-1.7705 7.67579,-3.207 2.20858,-1.4365 4.45404,-3.3942 6.08007,-5.4649 1.62628,-2.0706 2.75951,-4.3628 3.16016,-6.7988 0.40066,-2.4362 0.0678,-5.0084 -0.89844,-7.6016 -0.96606,-2.5932 -2.56522,-5.2063 -4.16015,-6.6132 -1.59502,-1.4071 -3.18877,-1.6115 -5.08399,-1.7032 -1.89504,-0.092 -4.09238,-0.069 -6.75976,-0.1113 -2.66729,-0.041 -5.80568,-0.148 -8.60157,-0.4258 -2.7958,-0.2778 -5.25138,-0.7301 -7.99218,-1.2461 -2.74088,-0.5162 -5.76609,-1.0951 -7.97266,-1.8574 -2.20639,-0.7622 -3.59257,-1.7075 -4.61719,-2.3496 -1.0247,-0.6421 -1.68855,-0.9821 -2.48437,-1.2461 -0.59701,-0.1979 -1.27011,-0.3529 -2.00586,-0.3848 -0.24519,-0.01 -0.49681,-0.01 -0.75586,0.014 -1.03645,0.078 -2.18053,0.4197 -4.07422,0.6465 -1.18338,0.1415 -2.68091,0.2461 -4.33203,0.4141 -0.23082,-0.3372 -0.39982,-0.5748 -0.85547,-1.2735 -1.3936,-2.1364 -3.13484,-4.8809 -6.18555,-10.164 0,0 -4.2599,-6.139 -5.54687,-9.6055 -1.07244,-2.8901 -1.72071,-9.0879 -1.72071,-9.0879 -2.40114,-12.6724 -1.85783,-18.9015 2.75782,-31.6172 0.74132,-2.0427 1.24007,-4.682 1.10742,-5.8652 -0.0144,-1.7377 -0.84651,-2.1653 -2.68359,-1.9922 -4.83474,0.4554 -9.28827,7.9132 -9.9375,15.7285 -0.30391,3.6667 -0.87245,4.9426 -1.77735,3.9824 -0.35731,-0.3791 -1.17297,-2.5637 -1.28906,-3.1328 -0.32723,-1.6013 -2.25096,-6.2833 -5.00781,-7.4394 -1.04118,-0.4367 -2.05461,-0.6183 -3.33204,0.6211 -2.12224,2.06 -0.87928,6.1331 2.26758,12.1269 6.76129,12.8808 10.47808,24.4169 8.83203,27.4141 -0.55206,1.0049 -0.76234,1.0362 -2.27929,0.3476 -1.70739,-0.7759 -6.41254,-5.7669 -9.19922,-9.041 -1.25477,-1.474 -2.1814,-2.9196 -3.35742,-4.7383 -1.38075,-2.1359 -2.66622,-5.2305 -3.62891,-8.7382 -1.88093,-6.8553 -1.71415,-10.5113 0.93945,-20.6348 2.37867,-8.6854 3.83005,-15.953 2.39844,-21.0312 -3.36113,-11.9193 -9.39406,-10.7429 -11.81836,2.3066 -1.68263,9.0549 -3.45467,12.3614 -5.9082,11.0137 -0.9179,-0.504 -1.23999,-1.626 -1.93164,-6.7364 -0.925,-6.8435 -0.28523,-14.7376 1.91601,-23.6777 4.11343,-16.7082 4.49331,-22.5836 1.56055,-24.0879 -0.60368,-0.3097 -1.25572,-0.433 -1.93359,-0.3887 z"
         id="path897" />
      <path
         style="color:#000000;font-style:normal;font-variant:normal;font-weight:normal;font-stretch:normal;font-size:medium;line-height:normal;font-family:sans-serif;font-variant-ligatures:normal;font-variant-position:normal;font-variant-caps:normal;font-variant-numeric:normal;font-variant-alternates:normal;font-feature-settings:normal;text-indent:0;text-align:start;text-decoration:none;text-decoration-line:none;text-decoration-style:solid;text-decoration-color:#000000;letter-spacing:normal;word-spacing:normal;text-transform:none;writing-mode:lr-tb;direction:ltr;text-orientation:mixed;dominant-baseline:auto;baseline-shift:baseline;text-anchor:start;white-space:normal;shape-padding:0;clip-rule:nonzero;display:inline;overflow:visible;visibility:visible;opacity:1;isolation:auto;mix-blend-mode:normal;color-interpolation:sRGB;color-interpolation-filters:linearRGB;solid-color:#000000;solid-opacity:1;vector-effect:none;fill:#1a1a1a;fill-opacity:1;fill-rule:nonzero;stroke:none;stroke-width:5.06944752;stroke-linecap:round;stroke-linejoin:miter;stroke-miterlimit:4;stroke-dasharray:none;stroke-dashoffset:0;stroke-opacity:1;color-rendering:auto;image-rendering:auto;shape-rendering:auto;text-rendering:auto;enable-background:accumulate"
         d="m 383.65331,1195.4546 a 2.5349773,2.5349773 0 0 0 -0.94141,4.8926 c 153.23259,62.943 315.64548,70.8317 485.20117,34.4785 a 2.5349773,2.5349773 0 1 0 -1.0625,-4.957 c -168.76047,36.1828 -330.00652,28.3104 -482.21289,-34.211 a 2.5349773,2.5349773 0 0 0 -0.98437,-0.2031 z m 494.11328,39.4024 a 2.5349773,2.5349773 0 0 0 -0.67383,0.1152 c -165.56326,48.7656 -326.9427,53.0344 -483.41797,2.1308 a 2.5349773,2.5349773 0 1 0 -1.56836,4.8204 c 157.53022,51.2468 320.07461,46.9055 486.41797,-2.0899 a 2.5349773,2.5349773 0 0 0 -0.75781,-4.9765 z"
         id="path1041" />
      <path
         style="fill:#1a1a1a;fill-opacity:1;stroke:none;stroke-width:0.68798536px;stroke-linecap:butt;stroke-linejoin:miter;stroke-opacity:1"
         d="m 234.29979,1155.6519 c -0.7965,0 -1.6067,0.01 -2.4375,0.027 -3.32395,0.081 -6.97536,0.3236 -9.97461,0.9316 -2.99926,0.6079 -5.3499,1.5812 -7.85742,2.6016 -2.5076,1.0202 -5.17345,2.0877 -8.01758,3.7168 -2.8443,1.629 -5.86767,3.82 -8.61523,6.1914 -2.74755,2.3715 -5.243,4.9472 -7.63477,7.5801 -2.39177,2.6328 -4.76426,5.4153 -6.72656,8.3886 -1.96221,2.9732 -3.53647,6.165 -4.68555,9.3399 -1.14916,3.1748 -1.87396,6.3333 -2.35742,9.3105 -0.48363,2.9773 -0.72751,5.7746 -0.64648,8.2676 0.0811,2.493 0.48819,4.6832 0.97461,6.6289 0.48641,1.9458 1.05314,3.6472 1.0332,4.8633 -0.0203,1.216 -0.62747,1.9485 -1.35156,3.248 -0.72417,1.2996 -1.56408,3.169 -1.25586,5.5704 0.30831,2.4013 1.96501,5.731 4.44726,7.0976 2.48217,1.3667 6.18405,1.5676 8.89063,0.5137 2.70683,-1.0537 4.41557,-3.3585 5.26758,-5.5059 0.85209,-2.1474 0.84746,-4.1339 0.27148,-5.8496 -0.57589,-1.7158 -1.72208,-3.1625 -2.84961,-4.0234 -1.12745,-0.8612 -2.23712,-1.1357 -3.24805,-1.4258 -1.01093,-0.2901 -1.92392,-0.5938 -2.71484,-1.9727 -0.79092,-1.3789 -1.45917,-3.8313 -1.5293,-6.2949 -0.0701,-2.4637 0.45788,-4.9358 1.12696,-7.166 0.66908,-2.2303 1.47872,-4.2163 2.69531,-5.8789 1.21658,-1.6624 2.83926,-2.999 4.40039,-3.7695 1.56122,-0.7701 3.05903,-0.9728 4.4375,-0.8106 1.3783,0.1623 2.63692,0.6874 3.44726,1.5586 0.81035,0.8712 1.17403,2.0893 1.59961,3.6094 0.42575,1.5201 0.91229,3.3438 1.6836,4.7265 0.77132,1.383 1.82919,2.325 2.14062,3.4082 0.31152,1.0833 -0.1249,2.3119 -0.39062,3.5567 -0.26573,1.2448 -0.36307,2.5117 0.0664,4.1543 0.42963,1.6426 1.38737,3.6591 2.875,5.3984 1.48763,1.7394 3.50108,3.1968 5.42383,3.9043 1.92268,0.7078 3.75356,0.665 4.82422,1.125 1.07059,0.4601 1.38445,1.4227 2.02539,2.2383 0.64095,0.8156 1.609,1.4847 2.89258,2.2344 1.28358,0.7498 2.87992,1.5801 4.49023,2.1582 1.61031,0.578 3.23178,0.9024 3.64063,2.2109 0.40885,1.3083 -0.42998,3.7028 -2.5332,8.4102 -2.10332,4.7074 -5.54304,11.9329 -8.12305,18.9843 -2.57968,7.0514 -4.29942,13.9322 -5.38867,22.0157 -1.08934,8.0837 -1.54816,17.3704 0.34375,27.6328 1.89184,10.2625 6.1334,21.5008 11.75195,31.3047 5.61864,9.8038 12.61424,18.1739 20.75586,23.334 8.14162,5.1603 17.42884,7.1109 27.17578,7.1679 9.74703,0.057 19.95098,-1.778 28.83789,-2.3515 8.88691,-0.5732 16.45341,0.1154 25.9707,1.7207 9.5173,1.6054 19.76394,-0.2735 28.94336,28.1308 2.24095,6.9343 -0.0514,20.9346 6.65625,24.2598 54.12058,19.8912 62.45083,-14.9115 33.9961,-17.1465 -2.41196,-2.4727 -3.36864,-19.565 -5.48438,-29.2598 -1.65103,-7.5659 -2.89795,-15.2915 -5.62109,-22.541 -2.7119,-7.2196 -5.27804,-16.7039 -10.56641,-20.584 -2.89845,-2.0878 -8.40892,-5.431 -12.25976,-7.1132 -3.85109,-1.6823 -8.13487,-3.4965 -12.04688,-4.7735 -3.91184,-1.2769 -7.45319,-2.0184 -10.25,-2.9101 -2.79673,-0.8918 -5.15231,-1.3362 -6.875,-1.7618 -1.72268,-0.4255 -2.81297,-0.8328 -3.54297,-1.3398 -0.73025,-0.507 -1.09512,-1.1135 -1.21679,-1.8437 -0.12167,-0.7303 1.8e-4,-1.5815 0.12109,-2.5547 0.12167,-0.9733 0.24178,-2.0673 0.26172,-3.4864 0.0203,-1.4189 -0.0598,-3.162 -0.20117,-4.9257 -0.14178,-1.7637 -0.34547,-3.5474 -0.66992,-5.3516 -0.32427,-1.8042 -0.76983,-3.6274 -1.29688,-5.3301 -0.52706,-1.7029 -1.13695,-3.2829 -1.98828,-4.8437 -0.85133,-1.5606 -1.94566,-3.1024 -3.22266,-4.5821 -1.27699,-1.4796 -2.75571,-2.9181 -4.10351,-3.9824 -1.34771,-1.0642 -2.60353,-1.7921 -3.39453,-2.5019 -0.79084,-0.7098 -1.11641,-1.3991 -0.60938,-1.7032 0.50711,-0.304 1.84522,-0.2241 3.24414,-0.082 1.39874,0.1418 2.85661,0.3459 4.64063,0.4473 1.78411,0.1016 3.89265,0.1001 5.91992,0.1602 2.02735,0.062 3.97248,0.1834 6.48633,-0.02 2.51377,-0.2028 5.59509,-0.7304 8.49414,-1.3184 2.89913,-0.588 5.61329,-1.2347 8.55273,-2.1875 2.93952,-0.9529 6.10151,-2.2113 9.14258,-3.4883 3.04083,-1.2771 5.95746,-2.5737 8.00586,-3.4863 2.04831,-0.9126 3.27173,-1.4613 4.3418,-1.5313 1.07025,-0.069 2.08411,0.2952 3.30078,0.3965 1.21666,0.1013 2.63492,-0.059 3.68945,-0.5664 1.05461,-0.5072 1.74372,-1.3575 2.12891,-2.1484 0.38537,-0.7911 0.46289,-1.5207 0.56445,-2.1699 0.1013,-0.6493 0.2327,-1.2537 0.75586,-1.7207 0.52334,-0.4671 1.45564,-0.8752 2.77344,-1.1387 1.31772,-0.2633 3.01932,-0.3823 4.62109,-0.5039 1.60178,-0.1218 3.101,-0.2445 4.5,-0.4473 1.39908,-0.2029 2.69538,-0.4871 4.13477,-0.9941 1.43955,-0.5069 3.01965,-1.2348 4.13476,-2.2285 1.11519,-0.9936 1.76275,-2.2512 2.26953,-3.4883 0.50686,-1.2368 0.87373,-2.4518 1.07618,-4.0938 0.20253,-1.642 0.24139,-3.7089 -0.0625,-5.6347 -0.30417,-1.9257 -0.95253,-3.7089 -2.10743,-4.7422 -1.15482,-1.0333 -2.81807,-1.3187 -4.23633,-1.42 -1.41825,-0.1013 -2.63445,-0.018 -3.93164,0.041 -1.2971,0.06 -2.75514,0.1 -3.40429,-0.205 -0.64956,-0.3044 -0.48771,-0.9512 -0.60938,-1.5996 -0.12175,-0.6484 -0.52757,-1.2971 -1.07422,-1.6211 -0.54674,-0.3235 -1.23745,-0.3262 -2.16601,-0.3028 -0.92847,0.024 -2.0966,0.074 -3.41406,0.336 -1.31738,0.2634 -2.79661,0.7474 -4.15235,1.4511 -1.35574,0.704 -2.61333,1.6369 -3.64648,2.4473 -1.03333,0.8103 -1.86717,1.5188 -2.38281,1.8945 -0.51565,0.3755 -0.75693,0.4576 -1.30469,0.1133 -0.54766,-0.3444 -1.39911,-1.1146 -1.9668,-1.6621 -0.56752,-0.5473 -0.85247,-0.8721 -0.24414,-2.0684 0.60834,-1.1964 2.10624,-3.2617 3.08008,-4.2558 0.97384,-0.9941 1.41927,-0.9127 2.1289,-0.791 0.70956,0.1216 1.68318,0.2835 2.8086,0.07 1.12533,-0.213 2.39925,-0.8007 3.39844,-1.5059 0.99927,-0.7054 1.71787,-1.5262 2.09765,-2.4434 0.37971,-0.9171 0.42212,-1.9299 0.23438,-2.8066 -0.18757,-0.8769 -0.60256,-1.6137 -0.54688,-2.1465 0.0558,-0.5328 0.64091,-0.8939 1.30078,-1.3828 0.65987,-0.4888 1.51061,-1.179 2.76758,-2.0508 1.25697,-0.8717 2.9191,-1.9227 4.31836,-2.957 1.39908,-1.034 2.53233,-2.0485 3.56641,-3.2246 1.03392,-1.176 1.96568,-2.5114 2.5332,-4.0117 0.56761,-1.5002 0.77011,-3.1647 0.75,-4.8067 -0.0203,-1.6421 -0.26295,-3.2617 -0.70898,-4.5996 -0.44594,-1.3378 -1.09571,-2.3926 -2.16993,-3.6289 -1.07421,-1.2363 -2.57159,-2.6543 -3.94922,-3.3633 -1.3777,-0.7091 -2.63627,-0.7092 -3.89257,-0.2636 -1.25629,0.4457 -2.51465,1.3385 -3.73047,1.9668 -1.21565,0.6282 -2.39089,0.9916 -3.2832,0.789 -0.89232,-0.2025 -1.50167,-0.9731 -2.4336,-1.3379 -0.93194,-0.3643 -2.18772,-0.3226 -3.32226,-0.059 -1.13463,0.2633 -2.14861,0.7493 -3.22266,1.7422 -1.07413,0.993 -2.21025,2.4951 -2.98047,3.7715 -0.76971,1.2764 -1.17768,2.3292 -1.60351,3.6465 -0.4255,1.3172 -0.86831,2.8982 -1.375,3.4863 -0.50678,0.588 -1.07781,0.1833 -1.78711,-0.2422 -0.70921,-0.4256 -1.55888,-0.8723 -2.47071,-1.2168 -0.91182,-0.3445 -1.8878,-0.5875 -2.83984,-0.5469 -0.95213,0.041 -1.88393,0.3645 -2.875,0.8594 -0.99108,0.4949 -2.04291,1.1613 -2.56836,2.2031 -0.52511,1.0419 -0.52503,2.4626 -0.0605,3.5489 0.46436,1.0862 1.39684,1.8391 1.71875,2.4375 0.322,0.5983 0.0354,1.0465 -0.51172,1.8164 -0.54699,0.7702 -1.37031,1.8824 -2.66015,3.332 -1.29,1.4496 -3.07428,3.2755 -5.38477,5.2617 -2.3104,1.9863 -5.16965,4.1511 -8.01758,6.3731 -2.84794,2.222 -5.72697,4.5327 -8.03711,6.1133 -2.31007,1.5807 -4.05488,2.4315 -5.45312,2.7558 -1.39832,0.3243 -2.45317,0.1236 -3.95313,-0.3223 -1.50005,-0.4458 -3.44462,-1.1368 -5.77539,-1.7246 -2.33084,-0.5878 -5.04994,-1.0739 -7.70507,-1.6211 -2.65512,-0.5472 -5.24559,-1.1538 -6.50391,-1.8437 -1.25807,-0.6899 -1.17669,-1.4603 -1.72461,-3.0625 -0.54784,-1.6022 -1.72246,-4.0314 -2.26953,-5.4707 -0.54708,-1.4393 -1.12959,-1.921 -1.13086,-2.9844 -3.3e-4,-0.2742 0.0217,-0.4024 0.29101,-0.7715 0.26876,-0.3693 0.50231,-0.8096 0.6543,-1.3613 0.152,-0.5519 0.22072,-1.1797 0.19141,-1.7734 -0.0321,-0.6481 -0.17581,-1.3823 -0.40039,-1.9043 -0.22457,-0.5221 -0.58052,-0.9706 -0.86914,-1.2481 -0.28837,-0.2775 -0.8147,-0.5505 -1.40039,-0.7773 -0.58577,-0.2267 -1.31148,-0.4407 -1.39453,-0.8008 -0.0828,-0.36 0.40156,-0.887 0.80078,-1.3535 0.39931,-0.4664 0.70955,-0.8716 0.98828,-1.3613 0.27882,-0.4897 0.5244,-1.0595 0.48047,-1.7403 -0.0448,-0.6806 -0.16247,-1.3844 -0.53516,-1.9433 -0.39424,-0.5913 -1.118,-0.8771 -1.67969,-1.3125 -0.20109,-0.1559 -0.46032,-0.258 -0.60547,-0.4668 -0.54742,-0.7876 -0.76265,-1.5858 -0.84765,-2.7481 -0.0852,-1.1622 -0.13392,-2.473 0.25195,-3.4668 0.38579,-0.9941 1.20307,-1.6687 1.91406,-2.4863 0.71107,-0.8177 1.31529,-1.7761 1.64844,-2.5527 0.33273,-0.7769 0.39549,-1.371 0.36523,-2.1836 -0.0313,-0.8126 -0.15704,-1.8531 -0.5996,-2.6621 -0.44248,-0.8091 -1.06019,-1.694 -1.84375,-2.2793 -1.11596,-0.8335 -2.46148,-1.3933 -3.86133,-1.5977 -1.39984,-0.2045 -2.75325,-0.017 -4.23438,0.2031 -1.48112,0.2201 -3.29517,1.1587 -4.9375,0.7129 -1.64217,-0.4459 -2.32132,-1.0133 -3.47656,-1.8847 -1.15525,-0.8715 -2.41992,-1.5833 -3.125,-2.4844 -0.70516,-0.9011 -0.78616,-1.9537 -0.90039,-2.9961 -0.11423,-1.0423 -0.26359,-2.0738 -0.63281,-3.4102 -0.3694,-1.3367 -0.95886,-2.9792 -1.93946,-4.3164 -0.98051,-1.3374 -2.35219,-2.3699 -3.68554,-3.2832 -1.33326,-0.9133 -2.62887,-1.7076 -3.94532,-2.1855 -1.31646,-0.478 -2.657,-0.6395 -3.73046,-0.5586 -1.07345,0.081 -1.88438,0.4039 -2.41211,0.3633 -0.52773,-0.041 -0.76968,-0.4455 -2.00586,-1.1954 -1.23627,-0.7498 -3.46741,-1.8444 -4.94727,-2.7363 -1.47985,-0.8919 -2.20744,-1.5811 -4.13281,-2.4121 -1.92538,-0.831 -5.04921,-1.803 -8.10938,-2.3301 -2.29527,-0.3952 -4.55558,-0.5413 -6.94531,-0.5547 z"
         id="path992" />
      <path
         style="fill:#1a1a1a;stroke-width:0.31809941"
         d="m 206.08398,485.61133 c -2.0026,-0.0428 -4.08494,0.86706 -5.6289,1.94531 -5.48976,3.8339 -5.86645,10.19882 -8.29492,18.29492 -0.85676,2.8575 -0.93482,2.9817 -1.9961,3.2168 -0.60712,0.1346 -1.39059,0.46156 -1.74023,0.72656 -0.5536,0.4193 -0.78221,0.35116 -1.77735,-0.52734 -0.6287,-0.5549 -2.60521,-3.12855 -4.39257,-5.71875 -2.68726,-3.8944 -6.79071,-9.08568 -7.6211,-9.64258 -0.11022,-0.0741 -0.78894,-0.72878 -1.50781,-1.45508 -0.71888,-0.726 -2.32777,-2.08819 -3.57422,-3.02539 -2.83668,-2.1331 -5.57062,-2.97543 -7.82031,-2.55273 -0.10819,0.025 -0.21731,0.0443 -0.32422,0.0723 v -0.002 c -1.60525,0.3983 -2.94338,1.46998 -3.86523,3.20508 -1.11515,2.099 -1.7807,4.03322 -0.43946,9.20312 0.54151,2.4749 1.67292,4.18747 2.66211,5.41406 1.65851,2.1821 4.40878,4.04728 15.73633,7.39258 2.58253,0.7628 4.79046,1.50093 4.90625,1.64063 0.1156,0.1396 -4.66424,1.3357 -10.62109,2.6582 -14.85252,3.2974 -13.88906,1.81345 -10.73633,16.59375 2.1474,10.067 2.22246,10.34917 2.75781,10.23047 0.30277,-0.0672 4.43346,-0.69379 4.84375,0.37891 0.11399,0.298 2.99732,13.13726 4.55078,19.69336 1.58079,6.6714 4.56715,19.53528 4.85352,19.98828 0.16836,0.2661 0.47621,0.63503 0.95117,0.58203 l 27.58203,-6.94922 c 17.37084,-3.8215 27.71892,-7.16542 27.96484,-7.23242 0.61908,-0.1846 1.46615,-0.91749 1.34571,-1.96289 l -4.37891,-19.72461 c -4.32866,-19.4967 -5.17927,-18.54046 0.18555,-19.84766 0.5507,-0.1342 0.51547,-0.3537 -1.77149,-10.6543 -2.25184,-10.1427 -2.36645,-10.55662 -3.125,-11.29882 -1.48215,-1.4504 -1.71348,-1.44297 -10.29882,0.27343 l -8.09571,1.61719 1.41211,-0.98828 c 3.20073,-2.2426 4.07614,-4.04755 5.05274,-6.65625 0.80495,-2.1502 1.30413,-3.07515 0.46093,-6.87305 -1.00478,-4.5257 -2.49047,-5.53943 -3.86914,-6.74023 -1.01189,-0.8814 -2.18516,-1.24971 -3.38672,-1.27539 z m 0.94532,5.38281 c 0.57929,0.0317 1.16653,0.15012 1.75976,0.35547 1.24722,0.432 2.85353,1.94931 3.01172,2.66211 0.16311,0.7345 -1.03474,3.65103 -2.13281,4.86133 -1.05353,1.161 -4.11868,3.25043 -10.02539,6.83593 -1.72537,1.0475 -3.42073,2.1293 -3.76758,2.4043 -0.72937,0.5776 -1.5882,0.85972 -1.6582,0.54492 -0.10432,-0.4698 2.92626,-7.91009 4.40234,-10.80859 1.94203,-3.8132 4.22572,-6.07796 6.69727,-6.69336 0.56172,-0.1398 1.13359,-0.19377 1.71289,-0.16211 z m -42.92969,1.48828 c 1.39508,-0.0605 2.89662,0.25992 4.36133,1.01172 2.6527,1.3619 6.4017,4.60553 9.70312,8.39063 2.09981,2.4077 4.96657,6.28339 5.10352,6.90039 0.0794,0.3579 -0.93152,0.14589 -4.66602,-0.97461 -12.49671,-3.7495 -15.43922,-4.78531 -17.31445,-6.09961 -1.02401,-0.7174 -2.13433,-1.90069 -2.57617,-2.52149 -0.73223,-1.0289 -0.69388,-1.61029 -0.46875,-2.46289 0.63778,-2.4156 2.25956,-3.52889 4.5039,-4.05859 0.4364,-0.10298 0.88849,-0.16538 1.35352,-0.18555 z"
         id="path1091"
         transform="translate(0,767.833)" />
    </g>
  </g>
</svg>
